<svg xmlns="http://www.w3.org/2000/svg" version="1.1" xmlns:xlink="http://www.w3.org/1999/xlink" xmlns:svgjs="http://svgjs.dev/svgjs" width="128" height="128" viewBox="0 0 128 128"><g transform="matrix(0.8046875,0,0,0.8046875,12.221578124999994,13.336899656233847)"><svg viewBox="0 0 96 94" data-background-color="#000000" preserveAspectRatio="xMidYMid meet" height="125" width="128" xmlns="http://www.w3.org/2000/svg" xmlns:xlink="http://www.w3.org/1999/xlink"><g id="tight-bounds" transform="matrix(1,0,0,1,0.25950000000000273,0.34589695815101607)"><svg viewBox="0 0 95.481 93.30820608369795" height="93.30820608369795" width="95.481"><g><svg viewBox="0 0 95.481 93.30820608369795" height="93.30820608369795" width="95.481"><g><svg viewBox="0 0 95.481 93.30820608369795" height="93.30820608369795" width="95.481"><g id="textblocktransform"><svg viewBox="0 0 95.481 93.30820608369795" height="93.30820608369795" width="95.481" id="textblock"><g><svg viewBox="0 0 95.481 93.30820608369795" height="93.30820608369795" width="95.481"><g><svg viewBox="0 0 95.481 93.30820608369795" height="93.30820608369795" width="95.481"><g><svg xmlns="http://www.w3.org/2000/svg" xmlns:xlink="http://www.w3.org/1999/xlink" version="1.0" x="0" y="0" viewBox="1.116 1.657 47.767 46.68000000000001" enable-background="new 0 0 50 50" xml:space="preserve" height="93.30820608369795" width="95.481" class="icon-icon-0" data-fill-palette-color="accent" id="icon-0"></svg></g></svg></g></svg></g></svg></g></svg></g></svg></g><defs></defs><mask id="69f94e70-a58a-44d2-84d1-b0cc4041d982"><g id="SvgjsG10534"><svg viewBox="0 0 95.481 93.30820608369795" height="93.30820608369795" width="95.481"><g><svg viewBox="0 0 95.481 93.30820608369795" height="93.30820608369795" width="95.481"><g><svg viewBox="0 0 95.481 93.30820608369795" height="93.30820608369795" width="95.481"><g id="SvgjsG10533"><svg viewBox="0 0 95.481 93.30820608369795" height="93.30820608369795" width="95.481" id="SvgjsSvg10532"><g><svg viewBox="0 0 95.481 93.30820608369795" height="93.30820608369795" width="95.481"><g><svg viewBox="0 0 95.481 93.30820608369795" height="93.30820608369795" width="95.481"><g><svg xmlns="http://www.w3.org/2000/svg" xmlns:xlink="http://www.w3.org/1999/xlink" version="1.0" x="0" y="0" viewBox="1.116 1.657 47.767 46.68000000000001" enable-background="new 0 0 50 50" xml:space="preserve" height="93.30820608369795" width="95.481" class="icon-icon-0" data-fill-palette-color="accent" id="SvgjsSvg10531"><g fill="white"><g fill="white"><path fill="black" d="M26 26V35.172C29 34.897 31.82 34.009 34.643 32.867 35.404 30.368 35.847 28 35.847 26z"></path><path fill="black" d="M38.019 26C38.019 28 37.705 29.585 37.069 31.84 40.703 30.158 43.943 28.194 46.125 26.768 46.136 26.513 46.163 26 46.163 26z"></path><path fill="black" d="M37.888 24H46.163C46.163 22 45.706 19.217 44.733 16.753 43.76 14.286 42.465 12.318 40.84 10.761 39.707 11.574 37.92 12.528 35.555 13.669 37.11 17.462 37.888 21 37.888 24"></path><path fill="black" d="M28.093 4.127C27.929 4.03 27.511 4 26.858 4H26V14.111C29 13.885 31.703 13.373 32.965 12.555 31.605 9.247 30.005 6.466 28.093 4.127"></path><path fill="black" d="M39.479 9.312C36.786 7.074 33.868 5.516 30.788 4.61 32.372 6.648 33.77 9.116 34.938 12.004 37.47 10.674 38.958 9.765 39.479 9.312"></path><path fill="black" d="M38.02 42.071A21.4 21.4 0 0 1 32.004 45.025C34.329 44.423 36.327 43.43 38.02 42.071"></path><path fill="black" d="M24 26H14.337C14.337 27 14.398 27.563 14.568 28.583L24 29.986z"></path><path fill="black" d="M4.082 26S4.114 26.692 4.14 27.041L12.529 28.273C12.418 27.45 12.358 27 12.358 26z"></path><path fill="black" d="M18.266 33.789C19.962 34.791 22 35.225 24 35.258V30.174z"></path><path fill="black" d="M35.13 18.699C34.646 16.589 34.1 15.137 33.647 14.392 30.598 15.627 28 16.253 26 16.253V24H35.847C35.847 22 35.585 20.774 35.13 18.699"></path><path fill="black" d="M19.14 4.738C15.603 5.642 12.812 7.17 10.704 9.311 11.32 9.86 12.847 10.706 15.309 11.872A33.5 33.5 0 0 1 19.14 4.738"></path><path fill="black" d="M13.203 18.34C13.72 16.201 14.24 14.657 14.758 13.684A61 61 0 0 0 12.551 12.679 27 27 0 0 1 10.606 11.708C10.025 11.384 9.604 11.074 9.275 10.75 6.228 13.928 4.443 18 3.927 24H12.359C12.391 22 12.681 20.479 13.203 18.34"></path><path fill="black" d="M26 46.226L28.166 46.098C28.23 46.017 28.274 45.916 28.343 45.827 27.563 45.939 27 46.016 26 46.059z"></path><path fill="black" d="M21.891 46.098L24 46.226V46.1C23 46.088 22.519 46.047 21.796 45.985 21.822 46.021 21.865 46.062 21.891 46.098"></path><path fill="black" d="M14.337 24H24V16.253C22 16.253 19.622 15.616 16.442 14.383 15.018 17.787 14.337 21 14.337 24"></path><path fill="black" d="M20.985 13.693C22.25 13.982 23 14.111 24 14.111V4H23.325C23.032 4 22.804 3.994 22.576 4.03 22.382 4.059 22.155 4.092 21.926 4.124A39.6 39.6 0 0 0 17.144 12.685C18.439 13.079 19.721 13.433 20.985 13.693"></path><path fill="white" d="M38.02 42.071C36.328 43.429 34.33 44.423 32.004 45.025A24 24 0 0 1 28.428 45.826C28.361 45.916 26.021 46.058 26.021 46.058 25.021 46.097 25.021 46.11 24.02 46.099 24.02 46.099 21.863 46.021 21.836 45.984 15.44 45.423 10.569 43.087 10.569 43.087L10.542 43.162C14.963 46.606 19.837 48.337 25.141 48.337 29.16 48.337 32.956 47.395 36.494 45.513 40.027 43.598 42.884 40.874 45.093 37.242 46.856 34.319 47.881 31.003 48.192 27.292 45.677 34.603 42.048 39.234 38.02 42.071"></path><path fill="white" d="M4.082 26H12.358C12.358 27 12.418 27.454 12.528 28.277L14.603 28.58C14.432 27.56 14.336 27 14.336 26H24V29.986L24.242 30.021 24 30.174V35.258C25 35.269 25 35.24 26 35.172V26H35.847C35.847 28 35.46 30.368 34.701 32.867A51 51 0 0 0 37.069 31.836C37.705 29.582 38.019 28 38.019 26H46.164L46.125 26.771A68 68 0 0 0 48.289 25.305C48.291 25.085 48.305 24.873 48.303 24.652 48.24 20.049 47.135 16.024 44.963 12.552 42.82 9.082 39.969 6.387 36.432 4.513 32.893 2.598 29.162 1.657 25.305 1.657 22.645 1.657 19.982 2.141 17.29 3.083 14.599 4.054 12.067 5.515 9.731 7.464 7.365 9.444 5.481 11.774 4.083 14.534 2.657 17.258 1.881 20.438 1.749 24.039 1.733 24.95 1.756 25.838 1.815 26.705L4.14 27.041C4.114 26.692 4.082 26 4.082 26M44.733 16.753C45.706 19.217 46.163 22 46.163 24H37.888C37.888 21 37.111 17.467 35.556 13.674 37.921 12.532 39.708 11.563 40.841 10.75 42.466 12.308 43.761 14.286 44.733 16.753M39.479 9.312C38.958 9.765 37.469 10.674 34.938 12.003 33.77 9.115 32.372 6.648 30.788 4.609 33.868 5.516 36.786 7.073 39.479 9.312M26 4H26.858C27.51 4 27.928 4.03 28.092 4.127 30.004 6.466 31.605 9.247 32.964 12.556 31.703 13.373 29 13.886 26 14.111zM26 16.253C28 16.253 30.598 15.637 33.646 14.402 34.099 15.147 34.617 16.589 35.101 18.699 35.557 20.774 35.847 22 35.847 24H26zM24 24H14.337C14.337 21 15.018 17.787 16.442 14.383 19.622 15.616 22 16.253 24 16.253zM22.576 4.03C22.805 3.994 23.032 4 23.325 4H24V14.111C23 14.111 22.25 13.982 20.985 13.693 19.721 13.432 18.44 13.077 17.144 12.683A39.6 39.6 0 0 1 21.917 4.123C22.146 4.092 22.382 4.06 22.576 4.03M19.14 4.738A33.4 33.4 0 0 0 15.31 11.872C12.847 10.706 11.321 9.86 10.705 9.311 12.812 7.17 15.603 5.643 19.14 4.738M9.274 10.75C9.603 11.074 10.024 11.377 10.605 11.701 11.19 12.026 11.84 12.355 12.55 12.679 13.298 13.004 14.012 13.331 14.757 13.692 14.239 14.665 13.719 16.201 13.202 18.34 12.681 20.478 12.391 22 12.358 24H3.927C4.443 18 6.228 13.929 9.274 10.75"></path></g><path fill="white" d="M32.507 3.195C32.507 5.161 29.183 6.756 25.081 6.756S17.654 5.161 17.654 3.195C21.113 2.279 21.184 2.382 25.286 2.382 29.386 2.382 27.216 3.094 32.507 3.195"></path><g fill="white"><path fill="white" d="M14.631 33.999L21.697 30.932 1.116 27.43 8.333 47.215 9.659 40.376S32.456 55.258 48.559 27.075L48.883 24.913C43.483 30.109 28.394 42.477 14.631 33.999"></path></g></g></svg></g></svg></g></svg></g></svg></g></svg></g></svg></g><defs><mask></mask></defs></svg><rect width="95.481" height="93.30820608369795" fill="black" stroke="none" visibility="hidden"></rect></g></mask><linearGradient x1="0.054" x2="0.941" y1="0.5" y2="0.5" id="c260442a-774c-4ec3-9253-321a0d04ffe5"><stop stop-color="#9c7945" offset="0"></stop><stop stop-color="#faf3aa" offset="0.498"></stop><stop stop-color="#9c7945" offset="1"></stop></linearGradient><rect width="95.481" height="93.30820608369795" fill="url(#c260442a-774c-4ec3-9253-321a0d04ffe5)" mask="url(#69f94e70-a58a-44d2-84d1-b0cc4041d982)" data-fill-palette-color="accent"></rect></svg><rect width="95.481" height="93.30820608369795" fill="none" stroke="none" visibility="hidden"></rect></g></svg></g></svg>